{
  "accessors": [
    {
      "bufferView": 2,
      "componentType": 5126,
      "count": 1028,
      "max": [
        -0.4731373190879822,
        9.594403266906738,
        4.79393196105957
      ],
      "min": [
        -0.9859682321548462,
        0.007132396101951599,
        -4.055764198303223
      ],
      "type": "VEC3"
    },
    {
      "bufferView": 2,
      "byteOffset": 12336,
      "componentType": 5126,
      "count": 1028,
      "max": [
        0.9999989867210388,
        1.0,
        1.0
      ],
      "min": [
        -0.9999990463256836,
        -1.0,
        -1.0
      ],
      "type": "VEC3"
    },
    {
      "bufferView": 1,
      "componentType": 5126,
      "count": 1028,
      "max": [
        1.0000001192092896,
        1.0
      ],
      "min": [
        0.0,
        -5.960464477539063e-08
      ],
      "type": "VEC2"
    },
    {
      "bufferView": 0,
      "componentType": 5125,
      "count": 1740,
      "type": "SCALAR"
    }
  ],
  "asset": {
    "extras": {
      "author": "William Zarek (https://sketchfab.com/bugbilly)",
      "license": "CC-BY-4.0 (http://creativecommons.org/licenses/by/4.0/)",
      "source": "https://sketchfab.com/3d-models/minecraft-diamond-f322b1f06bfd438bb20d8af16e92cc14",
      "title": "Minecraft Diamond"
    },
    "generator": "Sketchfab-12.66.0",
    "version": "2.0"
  },
  "bufferViews": [
    {
      "buffer": 0,
      "byteLength": 6960,
      "name": "floatBufferViews",
      "target": 34963
    },
    {
      "buffer": 0,
      "byteLength": 8224,
      "byteOffset": 6960,
      "byteStride": 8,
      "name": "floatBufferViews",
      "target": 34962
    },
    {
      "buffer": 0,
      "byteLength": 24672,
      "byteOffset": 15184,
      "byteStride": 12,
      "name": "floatBufferViews",
      "target": 34962
    }
  ],
  "buffers": [
    {
      "byteLength": 39856,
      "uri": "scene.bin"
    }
  ],
  "images": [
    {
      "uri": "textures/aiStandardSurface1_baseColor.png"
    },
    {
      "uri": "textures/aiStandardSurface1_emissive.png"
    }
  ],
  "materials": [
    {
      "doubleSided": true,
      "emissiveFactor": [
        0.017101318853709996,
        0.017101318853709996,
        0.017101318853709996
      ],
      "emissiveTexture": {
        "index": 1
      },
      "name": "aiStandardSurface1",
      "pbrMetallicRoughness": {
        "baseColorTexture": {
          "index": 0
        },
        "metallicFactor": 0.0,
        "roughnessFactor": 0.6
      }
    }
  ],
  "meshes": [
    {
      "name": "Diamond_aiStandardSurface1_0",
      "primitives": [
        {
          "attributes": {
            "NORMAL": 1,
            "POSITION": 0,
            "TEXCOORD_0": 2
          },
          "indices": 3,
          "material": 0,
          "mode": 4
        }
      ]
    }
  ],
  "nodes": [
    {
      "children": [
        1
      ],
      "matrix": [
        1.0,
        0.0,
        0.0,
        0.0,
        0.0,
        2.220446049250313e-16,
        -1.0,
        0.0,
        0.0,
        1.0,
        2.220446049250313e-16,
        0.0,
        0.0,
        0.0,
        0.0,
        1.0
      ],
      "name": "Sketchfab_model"
    },
    {
      "children": [
        2
      ],
      "matrix": [
        1.0,
        0.0,
        0.0,
        0.0,
        0.0,
        0.0,
        1.0,
        0.0,
        0.0,
        -1.0,
        0.0,
        0.0,
        0.0,
        0.0,
        0.0,
        1.0
      ],
      "name": "f81cd9cd9b884114bc41f65072f01faa.fbx"
    },
    {
      "children": [
        3
      ],
      "name": "RootNode"
    },
    {
      "children": [
        4
      ],
      "name": "Diamond"
    },
    {
      "mesh": 0,
      "name": "Diamond_aiStandardSurface1_0"
    }
  ],
  "samplers": [
    {
      "magFilter": 9729,
      "minFilter": 9987,
      "wrapS": 10497,
      "wrapT": 10497
    }
  ],
  "scene": 0,
  "scenes": [
    {
      "name": "Sketchfab_Scene",
      "nodes": [
        0
      ]
    }
  ],
  "textures": [
    {
      "sampler": 0,
      "source": 0
    },
    {
      "sampler": 0,
      "source": 1
    }
  ]
}
