{
  "accessors": [
    {
      "bufferView": 2,
      "componentType": 5126,
      "count": 14630,
      "max": [
        1.6830534934997559,
        2.197664260864258,
        3.0036063194274902
      ],
      "min": [
        -1.650007724761963,
        -2.109879493713379,
        -1.9241589307785034
      ],
      "type": "VEC3"
    },
    {
      "bufferView": 2,
      "byteOffset": 175560,
      "componentType": 5126,
      "count": 14630,
      "max": [
        0.9999995827674866,
        0.997198224067688,
        0.9999974966049194
      ],
      "min": [
        -0.9999986290931702,
        -0.9998849630355835,
        -1.0
      ],
      "type": "VEC3"
    },
    {
      "bufferView": 1,
      "componentType": 5126,
      "count": 14630,
      "max": [
        0.999898374080658,
        0.9970629215240479
      ],
      "min": [
        0.00010170464520342648,
        0.00010171138274017721
      ],
      "type": "VEC2"
    },
    {
      "bufferView": 0,
      "componentType": 5125,
      "count": 17190,
      "type": "SCALAR"
    }
  ],
  "asset": {
    "extras": {
      "author": "elysium2001design (https://sketchfab.com/elysium2001design)",
      "license": "CC-BY-4.0 (http://creativecommons.org/licenses/by/4.0/)",
      "source": "https://sketchfab.com/3d-models/floating-low-poly-island-4fa4c94abf124b548b206ab171a32833",
      "title": "Floating Low Poly Island"
    },
    "generator": "Sketchfab-15.49.0",
    "version": "2.0"
  },
  "bufferViews": [
    {
      "buffer": 0,
      "byteLength": 68760,
      "name": "floatBufferViews",
      "target": 34963
    },
    {
      "buffer": 0,
      "byteLength": 117040,
      "byteOffset": 68760,
      "byteStride": 8,
      "name": "floatBufferViews",
      "target": 34962
    },
    {
      "buffer": 0,
      "byteLength": 351120,
      "byteOffset": 185800,
      "byteStride": 12,
      "name": "floatBufferViews",
      "target": 34962
    }
  ],
  "buffers": [
    {
      "byteLength": 536920,
      "uri": "scene.bin"
    }
  ],
  "images": [
    {
      "uri": "textures/Material.007_baseColor.png"
    }
  ],
  "materials": [
    {
      "doubleSided": true,
      "name": "Material.007",
      "pbrMetallicRoughness": {
        "baseColorTexture": {
          "index": 0
        },
        "metallicFactor": 0.0,
        "roughnessFactor": 0.7763932022500211
      }
    }
  ],
  "meshes": [
    {
      "name": "Island_Material.007_0",
      "primitives": [
        {
          "attributes": {
            "NORMAL": 1,
            "POSITION": 0,
            "TEXCOORD_0": 2
          },
          "indices": 3,
          "material": 0,
          "mode": 4
        }
      ]
    }
  ],
  "nodes": [
    {
      "children": [
        1
      ],
      "matrix": [
        1.0,
        0.0,
        0.0,
        0.0,
        0.0,
        2.220446049250313e-16,
        -1.0,
        0.0,
        0.0,
        1.0,
        2.220446049250313e-16,
        0.0,
        0.0,
        0.0,
        0.0,
        1.0
      ],
      "name": "Sketchfab_model"
    },
    {
      "children": [
        2
      ],
      "matrix": [
        0.009999999776482582,
        0.0,
        0.0,
        0.0,
        0.0,
        0.0,
        0.009999999776482582,
        0.0,
        0.0,
        -0.009999999776482582,
        0.0,
        0.0,
        0.0,
        0.0,
        0.0,
        1.0
      ],
      "name": "Low_Poly_Island.fbx"
    },
    {
      "children": [
        3,
        6
      ],
      "name": "RootNode"
    },
    {
      "children": [
        4
      ],
      "matrix": [
        53.94541437447209,
        -83.38413240283955,
        -11.703791325558655,
        0.0,
        81.64943761460859,
        48.406413332329194,
        31.467236288542914,
        0.0,
        -20.57329636574979,
        -26.531210804954718,
        94.19571542268382,
        0.0,
        387.3044128417969,
        5348.033203125,
        83.941650390625,
        1.0
      ],
      "name": "Sun"
    },
    {
      "children": [
        5
      ],
      "matrix": [
        1.0,
        0.0,
        0.0,
        0.0,
        0.0,
        2.220446049250313e-16,
        1.0,
        0.0,
        0.0,
        -1.0,
        2.220446049250313e-16,
        0.0,
        0.0,
        0.0,
        0.0,
        1.0
      ],
      "name": "Object_4"
    },
    {
      "name": "Object_5"
    },
    {
      "children": [
        7
      ],
      "matrix": [
        2291.87744140625,
        0.0,
        0.0,
        0.0,
        0.0,
        -0.00037339422983671854,
        -2291.8774414062195,
        0.0,
        0.0,
        2291.8774414062195,
        -0.00037339422983671854,
        0.0,
        162.259765625,
        -909.9314575195313,
        7.681941986083984,
        1.0
      ],
      "name": "Island"
    },
    {
      "mesh": 0,
      "name": "Island_Material.007_0"
    }
  ],
  "samplers": [
    {
      "magFilter": 9729,
      "minFilter": 9987,
      "wrapS": 10497,
      "wrapT": 10497
    }
  ],
  "scene": 0,
  "scenes": [
    {
      "name": "Sketchfab_Scene",
      "nodes": [
        0
      ]
    }
  ],
  "textures": [
    {
      "sampler": 0,
      "source": 0
    }
  ]
}
