{
  "accessors": [
    {
      "bufferView": 2,
      "componentType": 5126,
      "count": 17,
      "max": [
        0.32113999128341675,
        0.676235020160675,
        -0.5321499705314636
      ],
      "min": [
        -0.6316909790039063,
        -0.7452219724655151,
        -0.5621790289878845
      ],
      "type": "VEC3"
    },
    {
      "bufferView": 1,
      "componentType": 5126,
      "count": 17,
      "max": [
        0.0,
        0.0
      ],
      "min": [
        0.0,
        0.0
      ],
      "type": "VEC2"
    },
    {
      "bufferView": 0,
      "componentType": 5125,
      "count": 18,
      "type": "SCALAR"
    },
    {
      "bufferView": 2,
      "byteOffset": 204,
      "componentType": 5126,
      "count": 25989,
      "max": [
        0.9153900146484375,
        0.9581559896469116,
        1.4228999614715576
      ],
      "min": [
        -0.9680870175361633,
        -0.987978994846344,
        -0.5734300017356873
      ],
      "type": "VEC3"
    },
    {
      "bufferView": 2,
      "byteOffset": 312072,
      "componentType": 5126,
      "count": 25989,
      "max": [
        0.9999083280563354,
        0.999839723110199,
        0.9999828338623047
      ],
      "min": [
        -0.9999867677688599,
        -0.9997783303260803,
        -0.9999967813491821
      ],
      "type": "VEC3"
    },
    {
      "bufferView": 1,
      "byteOffset": 136,
      "componentType": 5126,
      "count": 25989,
      "max": [
        0.9995499849319458,
        0.9995520114898682
      ],
      "min": [
        0.0,
        0.0
      ],
      "type": "VEC2"
    },
    {
      "bufferView": 0,
      "byteOffset": 72,
      "componentType": 5125,
      "count": 110238,
      "type": "SCALAR"
    }
  ],
  "asset": {
    "extras": {
      "author": "chrismartin1337 (https://sketchfab.com/chrismartin1337)",
      "license": "CC-BY-4.0 (http://creativecommons.org/licenses/by/4.0/)",
      "source": "https://sketchfab.com/3d-models/crystal-cluster-2-free-b1bed3164820477894d4f76307a26a13",
      "title": "Crystal Cluster 2 (Free)"
    },
    "generator": "Sketchfab-16.65.0",
    "version": "2.0"
  },
  "bufferViews": [
    {
      "buffer": 0,
      "byteLength": 441024,
      "name": "floatBufferViews",
      "target": 34963
    },
    {
      "buffer": 0,
      "byteLength": 208048,
      "byteOffset": 441024,
      "byteStride": 8,
      "name": "floatBufferViews",
      "target": 34962
    },
    {
      "buffer": 0,
      "byteLength": 623940,
      "byteOffset": 649072,
      "byteStride": 12,
      "name": "floatBufferViews",
      "target": 34962
    }
  ],
  "buffers": [
    {
      "byteLength": 1273012,
      "uri": "scene.bin"
    }
  ],
  "images": [
    {
      "uri": "textures/Material_0_baseColor.png"
    },
    {
      "uri": "textures/Material_0_metallicRoughness.png"
    }
  ],
  "materials": [
    {
      "doubleSided": true,
      "name": "Material_0",
      "pbrMetallicRoughness": {
        "baseColorTexture": {
          "index": 0
        },
        "metallicFactor": 0.5264557379855007,
        "metallicRoughnessTexture": {
          "index": 1
        },
        "roughnessFactor": 0.789301563627028
      }
    }
  ],
  "meshes": [
    {
      "name": "Object_0",
      "primitives": [
        {
          "attributes": {
            "POSITION": 0,
            "TEXCOORD_0": 1
          },
          "indices": 2,
          "material": 0,
          "mode": 1
        }
      ]
    },
    {
      "name": "Object_1",
      "primitives": [
        {
          "attributes": {
            "NORMAL": 4,
            "POSITION": 3,
            "TEXCOORD_0": 5
          },
          "indices": 6,
          "material": 0,
          "mode": 4
        }
      ]
    }
  ],
  "nodes": [
    {
      "children": [
        1
      ],
      "matrix": [
        1.0,
        0.0,
        0.0,
        0.0,
        0.0,
        2.220446049250313e-16,
        -1.0,
        0.0,
        0.0,
        1.0,
        2.220446049250313e-16,
        0.0,
        0.0,
        0.0,
        0.0,
        1.0
      ],
      "name": "Sketchfab_model"
    },
    {
      "children": [
        2,
        3
      ],
      "name": "CrystalCluster2.obj.cleaner.materialmerger.gles"
    },
    {
      "mesh": 0,
      "name": "Object_2"
    },
    {
      "mesh": 1,
      "name": "Object_3"
    }
  ],
  "samplers": [
    {
      "magFilter": 9729,
      "minFilter": 9987,
      "wrapS": 10497,
      "wrapT": 10497
    }
  ],
  "scene": 0,
  "scenes": [
    {
      "name": "Sketchfab_Scene",
      "nodes": [
        0
      ]
    }
  ],
  "textures": [
    {
      "sampler": 0,
      "source": 0
    },
    {
      "sampler": 0,
      "source": 1
    }
  ]
}
