{
  "accessors": [
    {
      "bufferView": 2,
      "componentType": 5126,
      "count": 247,
      "max": [
        1.2852712869644165,
        1.0113070011138916,
        -0.04954104125499725
      ],
      "min": [
        -1.0307807922363281,
        -1.2762261629104614,
        -0.989820122718811
      ],
      "type": "VEC3"
    },
    {
      "bufferView": 2,
      "byteOffset": 2964,
      "componentType": 5126,
      "count": 247,
      "max": [
        0.7291584610939026,
        0.9054010510444641,
        -0.34826159477233887
      ],
      "min": [
        -0.8961196541786194,
        -0.7467774152755737,
        -0.8961737751960754
      ],
      "type": "VEC3"
    },
    {
      "bufferView": 1,
      "componentType": 5126,
      "count": 247,
      "max": [
        0.0,
        0.0
      ],
      "min": [
        0.0,
        0.0
      ],
      "type": "VEC2"
    },
    {
      "bufferView": 0,
      "componentType": 5125,
      "count": 351,
      "type": "SCALAR"
    },
    {
      "bufferView": 2,
      "byteOffset": 5928,
      "componentType": 5126,
      "count": 715,
      "max": [
        1.2852712869644165,
        1.0126979351043701,
        0.016629109159111977
      ],
      "min": [
        -1.0307807922363281,
        -1.2762261629104614,
        -0.07990582287311554
      ],
      "type": "VEC3"
    },
    {
      "bufferView": 2,
      "byteOffset": 14508,
      "componentType": 5126,
      "count": 715,
      "max": [
        0.9643344879150391,
        0.9859666228294373,
        1.0
      ],
      "min": [
        -0.9537118673324585,
        -0.9904263019561768,
        -0.04586365446448326
      ],
      "type": "VEC3"
    },
    {
      "bufferView": 1,
      "byteOffset": 1976,
      "componentType": 5126,
      "count": 715,
      "max": [
        0.9210057854652405,
        0.9999040961265564
      ],
      "min": [
        0.0,
        0.0
      ],
      "type": "VEC2"
    },
    {
      "bufferView": 0,
      "byteOffset": 1404,
      "componentType": 5125,
      "count": 819,
      "type": "SCALAR"
    },
    {
      "bufferView": 2,
      "byteOffset": 23088,
      "componentType": 5126,
      "count": 494,
      "max": [
        12.716361045837402,
        0.2882070541381836,
        4.828824043273926
      ],
      "min": [
        -12.398754119873047,
        -19.836633682250977,
        -7.559303283691406
      ],
      "type": "VEC3"
    },
    {
      "bufferView": 2,
      "byteOffset": 29016,
      "componentType": 5126,
      "count": 494,
      "max": [
        0.8444992303848267,
        0.9989425539970398,
        0.29249274730682373
      ],
      "min": [
        -0.9533179998397827,
        -0.4154680669307709,
        -0.9983553886413574
      ],
      "type": "VEC3"
    },
    {
      "bufferView": 1,
      "byteOffset": 7696,
      "componentType": 5126,
      "count": 494,
      "max": [
        0.0,
        0.0
      ],
      "min": [
        0.0,
        0.0
      ],
      "type": "VEC2"
    },
    {
      "bufferView": 0,
      "byteOffset": 4680,
      "componentType": 5125,
      "count": 702,
      "type": "SCALAR"
    },
    {
      "bufferView": 2,
      "byteOffset": 34944,
      "componentType": 5126,
      "count": 1430,
      "max": [
        12.726250648498535,
        0.2882070541381836,
        5.390352249145508
      ],
      "min": [
        -12.557389259338379,
        -20.081623077392578,
        -4.474513053894043
      ],
      "type": "VEC3"
    },
    {
      "bufferView": 2,
      "byteOffset": 52104,
      "componentType": 5126,
      "count": 1430,
      "max": [
        0.8992577791213989,
        0.9197951555252075,
        0.9421581625938416
      ],
      "min": [
        -0.9905506372451782,
        -0.9145249724388123,
        -0.6120719909667969
      ],
      "type": "VEC3"
    },
    {
      "bufferView": 1,
      "byteOffset": 11648,
      "componentType": 5126,
      "count": 1430,
      "max": [
        0.9210057854652405,
        0.9999040961265564
      ],
      "min": [
        0.0,
        0.0
      ],
      "type": "VEC2"
    },
    {
      "bufferView": 0,
      "byteOffset": 7488,
      "componentType": 5125,
      "count": 1638,
      "type": "SCALAR"
    },
    {
      "bufferView": 2,
      "byteOffset": 69264,
      "componentType": 5126,
      "count": 247,
      "max": [
        -2.6677141189575195,
        -10.930206298828125,
        -6.540450096130371
      ],
      "min": [
        -7.975471019744873,
        -16.37334632873535,
        -10.976612091064453
      ],
      "type": "VEC3"
    },
    {
      "bufferView": 2,
      "byteOffset": 72228,
      "componentType": 5126,
      "count": 247,
      "max": [
        0.9220741987228394,
        0.9686167240142822,
        0.3851536512374878
      ],
      "min": [
        -0.5426748991012573,
        -0.34236225485801697,
        -0.9998319745063782
      ],
      "type": "VEC3"
    },
    {
      "bufferView": 1,
      "byteOffset": 23088,
      "componentType": 5126,
      "count": 247,
      "max": [
        0.0,
        0.0
      ],
      "min": [
        0.0,
        0.0
      ],
      "type": "VEC2"
    },
    {
      "bufferView": 0,
      "byteOffset": 14040,
      "componentType": 5125,
      "count": 351,
      "type": "SCALAR"
    },
    {
      "bufferView": 2,
      "byteOffset": 75192,
      "componentType": 5126,
      "count": 715,
      "max": [
        -2.6677141189575195,
        -10.930206298828125,
        -6.423420429229736
      ],
      "min": [
        -8.082784652709961,
        -16.45562171936035,
        -10.976612091064453
      ],
      "type": "VEC3"
    },
    {
      "bufferView": 2,
      "byteOffset": 83772,
      "componentType": 5126,
      "count": 715,
      "max": [
        0.6960361003875732,
        0.8551965355873108,
        0.7508399486541748
      ],
      "min": [
        -0.8016035556793213,
        -0.8870810866355896,
        -0.7587879300117493
      ],
      "type": "VEC3"
    },
    {
      "bufferView": 1,
      "byteOffset": 25064,
      "componentType": 5126,
      "count": 715,
      "max": [
        0.9210057854652405,
        0.9999040961265564
      ],
      "min": [
        0.0,
        0.0
      ],
      "type": "VEC2"
    },
    {
      "bufferView": 0,
      "byteOffset": 15444,
      "componentType": 5125,
      "count": 819,
      "type": "SCALAR"
    }
  ],
  "asset": {
    "extras": {
      "author": "Stickman (https://sketchfab.com/Stickman_moddeler)",
      "license": "CC-BY-4.0 (http://creativecommons.org/licenses/by/4.0/)",
      "source": "https://sketchfab.com/3d-models/low-poly-island-fffdf9c48c654afa8b5fd84d618e841e",
      "title": "Low Poly Island"
    },
    "generator": "Sketchfab-16.29.0",
    "version": "2.0"
  },
  "bufferViews": [
    {
      "buffer": 0,
      "byteLength": 18720,
      "name": "floatBufferViews",
      "target": 34963
    },
    {
      "buffer": 0,
      "byteLength": 30784,
      "byteOffset": 18720,
      "byteStride": 8,
      "name": "floatBufferViews",
      "target": 34962
    },
    {
      "buffer": 0,
      "byteLength": 92352,
      "byteOffset": 49504,
      "byteStride": 12,
      "name": "floatBufferViews",
      "target": 34962
    }
  ],
  "buffers": [
    {
      "byteLength": 141856,
      "uri": "scene.bin"
    }
  ],
  "materials": [
    {
      "doubleSided": true,
      "name": "Material.004",
      "pbrMetallicRoughness": {
        "baseColorFactor": [
          0.213755,
          0.0559687,
          0.0163006,
          1.0
        ],
        "metallicFactor": 0.0,
        "roughnessFactor": 0.9806244641415406
      }
    },
    {
      "doubleSided": true,
      "name": "Material.003",
      "pbrMetallicRoughness": {
        "baseColorFactor": [
          0.0301418,
          0.208811,
          0.0,
          1.0
        ],
        "metallicFactor": 0.0,
        "roughnessFactor": 0.9651732918124099
      }
    },
    {
      "doubleSided": true,
      "name": "Material.002",
      "pbrMetallicRoughness": {
        "baseColorFactor": [
          0.213755,
          0.0559687,
          0.0163006,
          1.0
        ],
        "metallicFactor": 0.0,
        "roughnessFactor": 0.9806244641415406
      }
    },
    {
      "doubleSided": true,
      "name": "Material.001",
      "pbrMetallicRoughness": {
        "baseColorFactor": [
          0.0301418,
          0.208811,
          0.0,
          1.0
        ],
        "metallicFactor": 0.0,
        "roughnessFactor": 0.9651732918124099
      }
    },
    {
      "doubleSided": true,
      "name": "Material.006",
      "pbrMetallicRoughness": {
        "baseColorFactor": [
          0.213755,
          0.0559687,
          0.0163006,
          1.0
        ],
        "metallicFactor": 0.0,
        "roughnessFactor": 0.9806244641415406
      }
    },
    {
      "doubleSided": true,
      "name": "material_0",
      "pbrMetallicRoughness": {
        "baseColorFactor": [
          0.0301418,
          0.208811,
          0.0,
          1.0
        ],
        "metallicFactor": 0.0,
        "roughnessFactor": 0.9651732918124099
      }
    }
  ],
  "meshes": [
    {
      "name": "Plane.002_Material.004_0",
      "primitives": [
        {
          "attributes": {
            "NORMAL": 1,
            "POSITION": 0,
            "TEXCOORD_0": 2
          },
          "indices": 3,
          "material": 0,
          "mode": 4
        }
      ]
    },
    {
      "name": "Plane.002_Material.003_0",
      "primitives": [
        {
          "attributes": {
            "NORMAL": 5,
            "POSITION": 4,
            "TEXCOORD_0": 6
          },
          "indices": 7,
          "material": 1,
          "mode": 4
        }
      ]
    },
    {
      "name": "Plane.002_Material.002_0",
      "primitives": [
        {
          "attributes": {
            "NORMAL": 9,
            "POSITION": 8,
            "TEXCOORD_0": 10
          },
          "indices": 11,
          "material": 2,
          "mode": 4
        }
      ]
    },
    {
      "name": "Plane.002_Material.001_0",
      "primitives": [
        {
          "attributes": {
            "NORMAL": 13,
            "POSITION": 12,
            "TEXCOORD_0": 14
          },
          "indices": 15,
          "material": 3,
          "mode": 4
        }
      ]
    },
    {
      "name": "Plane.002_Material.006_0",
      "primitives": [
        {
          "attributes": {
            "NORMAL": 17,
            "POSITION": 16,
            "TEXCOORD_0": 18
          },
          "indices": 19,
          "material": 4,
          "mode": 4
        }
      ]
    },
    {
      "name": "Plane.002_Material.005_0",
      "primitives": [
        {
          "attributes": {
            "NORMAL": 21,
            "POSITION": 20,
            "TEXCOORD_0": 22
          },
          "indices": 23,
          "material": 5,
          "mode": 4
        }
      ]
    }
  ],
  "nodes": [
    {
      "children": [
        1
      ],
      "matrix": [
        1.0,
        0.0,
        0.0,
        0.0,
        0.0,
        2.220446049250313e-16,
        -1.0,
        0.0,
        0.0,
        1.0,
        2.220446049250313e-16,
        0.0,
        0.0,
        0.0,
        0.0,
        1.0
      ],
      "name": "Sketchfab_model"
    },
    {
      "children": [
        2
      ],
      "matrix": [
        0.009999999776482582,
        0.0,
        0.0,
        0.0,
        0.0,
        0.0,
        0.009999999776482582,
        0.0,
        0.0,
        -0.009999999776482582,
        0.0,
        0.0,
        0.0,
        0.0,
        0.0,
        1.0
      ],
      "name": "5551d66a6e964d81aee343d8e881f2c6.fbx"
    },
    {
      "children": [
        3,
        6,
        8
      ],
      "name": "RootNode"
    },
    {
      "children": [
        4
      ],
      "matrix": [
        -29.086477364379697,
        -5.518905590722295,
        -95.51711910171437,
        0.0,
        56.63932069164076,
        79.46722539115298,
        -21.839126361216156,
        0.0,
        77.11007920637729,
        -60.452475336912016,
        -19.988344364310564,
        0.0,
        407.6245422363281,
        590.38623046875,
        -100.54539489746094,
        1.0
      ],
      "name": "Light"
    },
    {
      "children": [
        5
      ],
      "matrix": [
        1.0,
        0.0,
        0.0,
        0.0,
        0.0,
        2.220446049250313e-16,
        1.0,
        0.0,
        0.0,
        -1.0,
        2.220446049250313e-16,
        0.0,
        0.0,
        0.0,
        0.0,
        1.0
      ],
      "name": "Object_4"
    },
    {
      "name": "Object_5"
    },
    {
      "children": [
        7
      ],
      "matrix": [
        -65.1558127516791,
        -44.52713915455176,
        -61.417049289096546,
        0.0,
        -32.401349332924404,
        89.53957282709818,
        -30.5420854760369,
        0.0,
        68.59207001076241,
        8.666908837178815e-06,
        -72.76761921184274,
        0.0,
        735.88916015625,
        495.8309326171875,
        692.5791015625,
        1.0
      ],
      "name": "Camera"
    },
    {
      "name": "Object_7"
    },
    {
      "children": [
        9,
        10,
        11,
        12,
        13,
        14
      ],
      "matrix": [
        10.0444439250792,
        -2.636983238176329,
        1.1704022055529206,
        0.0,
        1.096001816213534e-07,
        -4.239567503613164,
        -9.551989471633268,
        0.0,
        2.885051722296221,
        9.180783610007248,
        -4.074810975250544,
        0.0,
        24.432703018188477,
        -55.49386215209961,
        -76.75151824951172,
        1.0
      ],
      "name": "Plane.002"
    },
    {
      "mesh": 0,
      "name": "Plane.002_Material.004_0"
    },
    {
      "mesh": 1,
      "name": "Plane.002_Material.003_0"
    },
    {
      "mesh": 2,
      "name": "Plane.002_Material.002_0"
    },
    {
      "mesh": 3,
      "name": "Plane.002_Material.001_0"
    },
    {
      "mesh": 4,
      "name": "Plane.002_Material.006_0"
    },
    {
      "mesh": 5,
      "name": "Plane.002_Material.005_0"
    }
  ],
  "scene": 0,
  "scenes": [
    {
      "name": "Sketchfab_Scene",
      "nodes": [
        0
      ]
    }
  ]
}
